<svg xmlns="http://www.w3.org/2000/svg" fill="none" viewBox="0 0 32 32"><path fill="#fff" d="M4.5 28h23c.275 0 .5-.225.5-.5v-23c0-.275-.225-.5-.5-.5h-23c-.275 0-.5.225-.5.5v23c0 .275.225.5.5.5z"/><rect width="2" height="4" x="7" y="14" fill="#892FFF" rx="1"/><rect width="2" height="4" x="7" y="14" fill="url(#a)" rx="1"/><rect width="2" height="12" x="11" y="10" fill="#892FFF" rx="1"/><rect width="2" height="12" x="11" y="10" fill="url(#b)" rx="1"/><rect width="2" height="8" x="15" y="12" fill="#892FFF" rx="1"/><rect width="2" height="8" x="15" y="12" fill="url(#c)" rx="1"/><rect width="2" height="16" x="19" y="8" fill="#892FFF" rx="1"/><rect width="2" height="16" x="19" y="8" fill="url(#d)" rx="1"/><rect width="2" height="6" x="23" y="13" fill="#892FFF" rx="1"/><rect width="2" height="6" x="23" y="13" fill="url(#e)" rx="1"/><path fill="#605E5C" fill-rule="evenodd" d="M4.5 29h23c.827 0 1.5-.673 1.5-1.5v-23c0-.827-.673-1.5-1.5-1.5h-23C3.673 3 3 3.673 3 4.5v23c0 .827.673 1.5 1.5 1.5zM4 4.5a.5.5 0 0 1 .5-.5h23a.5.5 0 0 1 .5.5v23a.5.5 0 0 1-.5.5h-23a.5.5 0 0 1-.5-.5v-23z" clip-rule="evenodd" opacity=".67"/><defs><linearGradient id="a" x1="8" x2="7.406" y1="17.021" y2="15.382" gradientUnits="userSpaceOnUse"><stop stop-color="#A966FF"/><stop offset="1" stop-color="#892FFF"/></linearGradient><linearGradient id="b" x1="12" x2="9.228" y1="19.063" y2="16.514" gradientUnits="userSpaceOnUse"><stop stop-color="#A966FF"/><stop offset="1" stop-color="#892FFF"/></linearGradient><linearGradient id="c" x1="16" x2="14.237" y1="18.042" y2="15.611" gradientUnits="userSpaceOnUse"><stop stop-color="#A966FF"/><stop offset="1" stop-color="#892FFF"/></linearGradient><linearGradient id="d" x1="20" x2="16.533" y1="20.084" y2="17.693" gradientUnits="userSpaceOnUse"><stop stop-color="#A966FF"/><stop offset="1" stop-color="#892FFF"/></linearGradient><linearGradient id="e" x1="24" x2="22.832" y1="17.532" y2="15.384" gradientUnits="userSpaceOnUse"><stop stop-color="#A966FF"/><stop offset="1" stop-color="#892FFF"/></linearGradient></defs></svg>