<svg xmlns="http://www.w3.org/2000/svg" fill="none" viewBox="0 0 32 32"><path fill="#fff" d="M6.5 29h19c.275 0 .5-.225.5-.5V9h-4.5c-.827 0-1.5-.673-1.5-1.5V3H6.5c-.275 0-.5.225-.5.5v25c0 .275.225.5.5.5z"/><path fill="#fff" d="M25.293 8 21 3.707V7.5c0 .275.225.5.5.5h3.793z"/><path fill="#605E5C" fill-rule="evenodd" d="m26.56 7.854-5.414-5.415A1.51 1.51 0 0 0 20.086 2H6.5C5.673 2 5 2.673 5 3.5v25c0 .827.673 1.5 1.5 1.5h19c.827 0 1.5-.673 1.5-1.5V8.914c0-.4-.156-.777-.44-1.06zM21 3.707 25.293 8H21.5a.501.501 0 0 1-.5-.5V3.707zM6.5 29h19c.275 0 .5-.225.5-.5V9h-4.5c-.827 0-1.5-.673-1.5-1.5V3H6.5c-.275 0-.5.225-.5.5v25a.5.5 0 0 0 .5.5z" clip-rule="evenodd" opacity=".67"/><path fill="#FF5C0D" fill-rule="evenodd" d="M12.73 20.417h5.3l.827 1.969c.27.639.403 1.107.403 1.403a.702.702 0 0 1-.288.565c-.19.155-.56.246-1.105.273V25h5.4v-.373c-.558-.034-.994-.187-1.307-.459-.312-.273-.66-.867-1.044-1.782L16.151 11h-.353l-4.815 11.265c-.417.988-.797 1.645-1.14 1.968-.168.161-.538.293-1.11.394V25h4.31v-.373c-.66-.048-1.089-.15-1.287-.308-.199-.158-.298-.342-.298-.55 0-.262.114-.66.343-1.192l.928-2.16zm2.695-6.277 2.321 5.53h-4.703l2.382-5.53z" clip-rule="evenodd"/></svg>