<svg xmlns="http://www.w3.org/2000/svg" fill="none" viewBox="0 0 32 32"><path fill="#fff" d="M4.5 28h23c.275 0 .5-.225.5-.5v-23c0-.275-.225-.5-.5-.5h-23c-.275 0-.5.225-.5.5v23c0 .275.225.5.5.5z"/><path fill="#605E5C" fill-rule="evenodd" d="M4.5 29h23c.827 0 1.5-.673 1.5-1.5v-23c0-.827-.673-1.5-1.5-1.5h-23C3.673 3 3 3.673 3 4.5v23c0 .827.673 1.5 1.5 1.5zM4 4.5a.5.5 0 0 1 .5-.5h23a.5.5 0 0 1 .5.5v23a.5.5 0 0 1-.5.5h-23a.5.5 0 0 1-.5-.5v-23z" clip-rule="evenodd" opacity=".67"/><path fill="url(#a)" d="M21.435 15.003c.753.41.753 1.583 0 1.994L12.48 21.88c-.68.37-1.479-.169-1.479-.997v-9.768c0-.829.8-1.367 1.479-.997l8.956 4.884z"/><path fill="url(#b)" d="M21.435 15.003c.753.41.753 1.583 0 1.994L12.48 21.88c-.68.37-1.479-.169-1.479-.997v-9.768c0-.829.8-1.367 1.479-.997l8.956 4.884z"/><defs><linearGradient id="a" x1="12.325" x2="14.819" y1="12.051" y2="17.065" gradientUnits="userSpaceOnUse"><stop stop-color="#A966FF"/><stop offset="1" stop-color="#892FFF"/></linearGradient><linearGradient id="b" x1="16.5" x2="15.441" y1="19.063" y2="13.708" gradientUnits="userSpaceOnUse"><stop stop-color="#A966FF"/><stop offset="1" stop-color="#892FFF"/></linearGradient></defs></svg>